<?xml version="1.0" standalone="no"?><svg xmlns="http://www.w3.org/2000/svg" viewBox="0 0 1440 320"><path fill="#0099ff" fill-opacity="1" d="M0,64L12,64C24,64,48,64,72,85.3C96,107,120,149,144,186.7C168,224,192,256,216,234.7C240,213,264,139,288,112C312,85,336,107,360,112C384,117,408,107,432,85.3C456,64,480,32,504,37.3C528,43,552,85,576,122.7C600,160,624,192,648,192C672,192,696,160,720,160C744,160,768,192,792,186.7C816,181,840,139,864,138.7C888,139,912,181,936,208C960,235,984,245,1008,240C1032,235,1056,213,1080,218.7C1104,224,1128,256,1152,272C1176,288,1200,288,1224,272C1248,256,1272,224,1296,208C1320,192,1344,192,1368,181.3C1392,171,1416,149,1428,138.7L1440,128L1440,0L1428,0C1416,0,1392,0,1368,0C1344,0,1320,0,1296,0C1272,0,1248,0,1224,0C1200,0,1176,0,1152,0C1128,0,1104,0,1080,0C1056,0,1032,0,1008,0C984,0,960,0,936,0C912,0,888,0,864,0C840,0,816,0,792,0C768,0,744,0,720,0C696,0,672,0,648,0C624,0,600,0,576,0C552,0,528,0,504,0C480,0,456,0,432,0C408,0,384,0,360,0C336,0,312,0,288,0C264,0,240,0,216,0C192,0,168,0,144,0C120,0,96,0,72,0C48,0,24,0,12,0L0,0Z"></path></svg>